<?xml version="1.0" standalone="no"?><!DOCTYPE svg PUBLIC "-//W3C//DTD SVG 1.1//EN" "http://www.w3.org/Graphics/SVG/1.1/DTD/svg11.dtd"><svg t="1731325818015" class="icon" viewBox="0 0 1210 1024" version="1.1" xmlns="http://www.w3.org/2000/svg" p-id="4374" xmlns:xlink="http://www.w3.org/1999/xlink" width="236.328125" height="200"><path d="M1039.304137 133.987038l-145.707368 74.23601-703.603781 358.380737a422.3261 422.3261 0 0 1-3.583807-54.729858A419.151871 419.151871 0 0 1 809.940466 146.479167l83.400317-42.493716 12.440931-6.348459A511.972481 511.972481 0 0 0 93.076597 512.027519q0 19.557349 1.48472 38.961105a93.127794 93.127794 0 0 1-50.582881 90.004763L0 663.417781V768.013759l129.477841-65.993253 41.930546-21.400449 41.316179-21.042069L954.470297 281.639902l83.34912-42.442519 172.27874-87.80328V46.849322zM1210.098157 256.041278L254.859901 742.415135l-83.34912 42.544913L0 872.353751v104.493583l170.333245-86.779335 145.707368-74.23601 704.320543-358.892709A427.241036 427.241036 0 0 1 1023.944963 512.027519a419.151871 419.151871 0 0 1-624.145652 365.343562l-5.119725 2.713454-90.41434 46.077524A511.972481 511.972481 0 0 0 1117.02156 512.027519c0-13.157693-0.511972-26.315386-1.48472-39.319487a93.178992 93.178992 0 0 1 50.531684-90.004762l44.029633-22.424395z" fill="#221E1F" p-id="4375"></path></svg>